<?xml version="1.0" encoding="utf-8"?>
<!-- Generator: Adobe Illustrator 22.0.0, SVG Export Plug-In . SVG Version: 6.00 Build 0)  -->
<svg version="1.1" id="logo_xA0_Image_1_" xmlns="http://www.w3.org/2000/svg" xmlns:xlink="http://www.w3.org/1999/xlink" x="0px"
	 y="0px" viewBox="0 0 168 95.5" style="enable-background:new 0 0 168 95.5;" xml:space="preserve">
<style type="text/css">
	.st0{fill:#FBFBFB;}
</style>
<g>
	<path class="st0" d="M0.4,95.8c56,0,111.9,0,168,0c0-31.9,0-63.7,0-95.5c0.2,0,0.5,0,0.5,0c0,0.7,0,1.4,0,2.2c0,31.3,0,62.6,0,93.8
		c-55.4,0-110.9,0-166.3,0c-0.7,0-1.4,0-2.2,0C0.4,96.2,0.4,95.9,0.4,95.8z"/>
	<path class="st0" d="M162.7,5.5c0,5.2,0,10.2,0,15.4c-1.9,0-3.8,0-5.7,0c-3.3,0-6.6,0.8-9.9,0.5c-1.6,0.7-3.2,0.4-4.8,0.5
		c-0.8,0.1-1.6,0.5-2.4,0.5c-0.7,0-1.5-0.2-2.3,0.3c-0.7,0.4-1.7,0-2.5,0.2c-2.1,0.5-4.3,0.5-6.3,1c-3.3,0.9-6.9,1-10.1,2.3
		c-3.2,0.1-6.1,1.4-9.3,2c-1.7,0.3-3.4,0.9-5.1,1.5c-3.8,1.2-7.6,2.5-11.4,3.7c-2,0.7-4,1.5-6,2.2c-3.8,1.4-7.4,3.3-11.3,4.6
		c-0.9,0.3-1.7,0.9-2.6,1.4c-2.6,1.4-5.5,2.3-8,3.8c-2.8,1.7-5.7,3.2-8.6,4.7c-3.8,2-7.3,4.3-11,6.5c-2.9,1.7-5.7,3.8-8.4,5.8
		c-2.6,1.9-5.2,4-7.9,5.7c-1.1,0.7-2.1,1.6-3,2.5c-2.2,1.9-4.6,3.8-6.8,5.7c-1.1,0.9-2.1,1.9-3.1,2.8c-3.4,2.7-6.4,6-9.5,9
		c-0.1,0.1-0.3,0.1-0.4,0.1c-0.1,0-0.1,0-0.2-0.1c-0.1,0-0.2-0.1-0.2-0.2c0-2.9,0-5.8,0-8.6c3.8-4.8,8.5-8.8,12.7-13.3
		c0.9-1,2.1-1.6,3.1-2.5c0.9-0.9,1.6-2,2.8-2.4c0.5-0.2,0.8-0.8,1.2-1.1c2.2-1.9,4.5-3.7,6.8-5.5c1.4-1.1,2.8-2.1,4.2-3.2
		c2.9-2.3,5.9-4.3,8.9-6.3c3.4-2.3,6.8-4.5,10.3-6.5c1.3-0.8,2.7-1.6,4.1-2.3c3.7-1.8,7.1-4.1,10.8-5.8c3.4-1.6,6.8-3.3,10.3-4.7
		c2.4-1,4.7-2.1,7.1-3.1c3.9-1.6,7.9-3,11.8-4.4c3.1-1.1,6.3-2.1,9.5-3.1c2-0.6,4-1.3,6-1.7c1.5-0.2,2.9-0.9,4.4-1.1
		c1.8-0.3,3.6-0.8,5.4-1.3c2.6-0.6,5.2-1.2,7.8-1.6c1.3-0.2,2.6-0.7,3.9-0.8c1.4-0.1,2.7-0.5,4.1-0.7c1.1-0.1,2.3-0.1,3.4-0.4
		c1.1-0.4,2.2-0.1,3.2-0.5c1.5-0.5,3.2,0,4.6-0.5c1.5-0.5,3,0,4.4-0.4C158.5,5.3,160.5,5.6,162.7,5.5z"/>
	<path class="st0" d="M106.7,75.7c0.6-1.2,1.3-2.2,1.7-3.3c1.4-3.6,3.3-6.9,4.9-10.5c1.1-2.4,2.3-4.8,3.4-7.3c3,0,6.1,0,9.2,0
		c0.3,1.9,0.5,28.7,0.1,35.8c-2.4,0-4.9,0-7.5,0c0-7.6,0-15.2,0-23.1c-1.6,1.8-1.9,3.8-2.8,5.6c-1.7,3.2-3.1,6.5-4.6,9.8
		c-0.6,1.3-0.9,2.7-1.9,3.8c-1.8,0-3.6,0-5.4,0c-3-6.5-6-13-9-19.5c-0.1,0.3,0.1-0.2-0.2,0c-0.1,0-0.1,0.1-0.1,0.2
		c0,7.7,0,15.3,0,23.1c-2.4,0-4.7,0-7.1,0c0-11.9,0-23.8,0-35.8c2.9,0,5.8,0,9,0c2.1,3.1,3.1,7,5.1,10.4
		C103.4,68.4,104.5,72.2,106.7,75.7z"/>
	<path class="st0" d="M154.6,76.1c-5.4,0-10.6,0-15.9,0c0,4.7,0,9.4,0,14.2c-2.9,0-5.7,0-8.6,0c0-11.9,0-23.8,0-35.7
		c0.2-0.2,0.4-0.4,0.7-0.7c2.4,0,4.8,0,7.2,0c0.2,0.2,0.4,0.4,0.7,0.8c0,4.6,0,9.3,0,14c5.3,0,10.4,0,15.8,0c0-4.9,0-9.8,0-14.8
		c2.8,0,5.4,0,8.1,0c0,12.1,0,24.2,0,36.4c-2.7,0-5.3,0-8,0C154.6,85.7,154.6,81,154.6,76.1z"/>
	<path class="st0" d="M76.8,80.9c0-2.8,0-5.9,0-9.1c2.4,0,4.7,0,7.1,0c0,4.6,0,9.3,0,14.2c-1,0.6-2.1,1.3-3.3,1.9
		c-2.1,1-4.2,1.7-6.5,2.2c-2.7,0.6-5.4,0.5-8,0.3c-2.5-0.2-4.8-1.2-7.1-2.5c-3.2-1.7-5.1-4.4-6.9-7.2c-0.9-1.4-1.7-3.2-1.6-5.1
		c0.1-1-0.6-1.9-0.5-2.9c0.1-0.9,0.2-1.8,0.5-2.7c0.3-0.9-0.1-1.8,0.3-2.7c0.3-0.7,0.5-1.5,0.9-2.3c0.4-0.8,0.7-1.7,1.2-2.4
		c1.2-1.4,1.9-3.1,3.6-4c1.1-0.6,2-1.6,3.2-2.2c1.9-0.9,3.8-1.6,5.9-2c1.7-0.3,3.4-0.4,5.1-0.4c4.3,0.1,8.2,1.5,11.8,3.9
		c1.4,0.9,1.4,1,1.6,2c-1.6,1.4-2.7,3.3-4.3,5c-0.2,0.1-0.7,0.1-1.2-0.4c-1.7-1.7-3.9-2.5-6.2-3c-0.8-0.2-1.5-0.5-2.4-0.5
		c-2.9,0.1-5.4,1.2-7.7,2.9c-1.5,1.1-2.5,3.6-3.2,5.6c-1.1,3.3,0,6.1,1.5,8.8c0.7,1.3,1.8,2.2,3.2,3c2.2,1.2,4.4,2.1,6.9,1.8
		c1.3-0.1,2.6-0.3,3.7-1C75,81.9,76.1,82.1,76.8,80.9z"/>
</g>
</svg>
